<svg xmlns="http://www.w3.org/2000/svg" version="1.1" xmlns:xlink="http://www.w3.org/1999/xlink" xmlns:svgjs="http://svgjs.dev/svgjs" width="100%" height="100%" viewBox="0 0 1000 600"><rect width="1000" height="600" x="0" y="0" fill="#ee4e34"/><g><rect width="333.3333333333333" height="333.3333333333333" rx="13.333333333333334" ry="13.333333333333334" y="272.67472662168825" fill="#fcedda" transform="matrix(0.4990966666041246,0,0,0.4990966666041245,-3.905995278219954,80.72618151693862)" x="266.07659912109375"/><path d="M316.9623620184428 511.0791131459223L316.9623620184428 511.0791131459223Q306.98174238809713 511.0791131459223 297.32412015679176 508.75353187283207Q287.6664979254864 506.42795059974185 280.2375577475592 501.7767880535613L280.2375577475592 501.7767880535613Q277.68587829514075 499.9034031391275 276.74918583792385 496.31813200978Q275.81249338070694 492.7005611405285 275.81249338070694 487.59720223569155L275.81249338070694 487.59720223569155Q275.81249338070694 478.5209753226588 279.3008652903423 466.08557545960673Q282.7892371999777 453.6501755965547 288.1509940240469 440.3749824959978Q293.48045110821204 427.132089135345 299.2944042909377 415.2780845905655Q305.1083574736633 403.391780305882 309.7595200198438 395.73674194862656L309.7595200198438 395.73674194862656Q314.1845843866961 388.98609630868407 320.70913184731046 386.3052178966494Q327.2013795680207 383.62433948461484 334.4042215666197 383.62433948461484L334.4042215666197 383.62433948461484Q350.0049959402668 383.62433948461484 347.67941466717656 386.43441685626556L347.67941466717656 386.43441685626556Q342.8021539416678 392.02227185966296 337.44039711759865 401.0661990327917Q332.0786402935295 410.1424259458245 327.4274777473489 419.57394999780166Q322.7763152011684 428.97317430987476 319.5463412107653 435.94991812914554L319.5463412107653 435.94991812914554Q311.85900311360587 452.2289870407773 306.0450499308802 467.7005624548083Q300.2310967481546 483.1721378688393 298.13161365439254 492.7005611405285L298.13161365439254 492.7005611405285Q297.67941729573613 494.57394605496233 297.67941729573613 495.7367366915074L297.67941729573613 495.7367366915074Q297.67941729573613 498.28841614392593 299.2944042909377 500.25870027807184Q300.94169102604326 502.22898441221776 305.1083574736633 502.93957869010643L305.1083574736633 502.93957869010643Q306.7556442087689 503.16567686943466 308.24143224435437 503.29487582905074Q309.7595200198438 503.3917750487629 311.4068067549494 503.3917750487629L311.4068067549494 503.3917750487629Q320.22463574874996 503.3917750487629 327.6858756665812 498.9990104218146Q335.11481584450837 494.57394605496233 336.9882007589422 486.2083134198182L336.9882007589422 486.2083134198182Q337.6664952969269 483.3982360481675 337.44039711759865 480.13596231786033L337.44039711759865 480.13596231786033Q337.44039711759865 474.58040705436696 335.82541012239705 467.8297614144244Q334.17812338729146 461.07911577448186 331.0450486166004 455.2651625917563Q327.9119738459094 449.45120940903064 323.0347131204007 446.6734317772839L323.0347131204007 446.6734317772839Q320.70913184731046 445.25224322150655 320.70913184731046 443.41115804697677L320.70913184731046 443.41115804697677Q320.70913184731046 441.3116749532147 323.2608112997289 440.8594785945583L323.2608112997289 440.8594785945583Q328.8486663031263 440.8594785945583 334.75951870556406 436.434414227706Q340.7026708479058 432.0093498608537 345.70913053303065 424.80650786225476Q350.6832904782515 417.60366586365575 353.8486649888465 409.1088342688955Q356.98173975953756 400.6140026741353 356.98173975953756 392.70056639764766L356.98173975953756 392.70056639764766Q356.98173975953756 381.5571561307568 350.36029307921115 377.22899098361665Q343.7065466589807 372.93312557638046 334.66261948585196 372.93312557638046L334.66261948585196 372.93312557638046Q326.9752813886925 372.93312557638046 318.8357469328766 375.16180762975864Q310.6962124770607 377.3581899432328 304.65616111500685 380.1359675749795L304.65616111500685 380.1359675749795Q291.63936593368226 386.2083186769373 282.9184361595938 395.73674194862656Q274.1975063855054 405.2651652203158 272.776317829728 414.3413921333486L272.776317829728 414.3413921333486Q271.61352719318285 413.8568960347881 268.38355320277975 413.1786014968035Q265.12127947247257 412.4680072189148 261.9882047017815 410.36852412515276Q258.8228301911865 408.30134077129475 258.37063383253 404.3284727630989L258.37063383253 404.3284727630989Q257.66003955464134 396.188938307283 262.440401060438 389.79358980628484Q267.2207625662346 383.3982413052866 275.6832944210908 378.87627771872224Q284.17812601585103 374.32201439225383 294.5463425250451 371.3181385811789Q304.8822592943351 368.28196303019996 315.57347320256946 366.89307421432665Q326.26468711080383 365.5041853984533 335.56701220316484 365.5041853984533L335.56701220316484 365.5041853984533Q339.5398802113607 365.5041853984533 343.02825212099606 365.7302835777815Q346.5166240306314 365.95638175710974 349.2944016623781 366.4408778556702L349.2944016623781 366.4408778556702Q367.89905184710017 369.4447536667451 376.03858630291603 378.3917816201618Q384.1781207587319 387.3711093134825 384.1781207587319 398.28842140104507L384.1781207587319 398.28842140104507Q384.1781207587319 408.0429428520625 378.36416757600625 417.4744669040396Q372.5502143932806 426.90599095601675 362.44039580331884 433.301339457015Q352.33057721335706 439.6966879580132 339.31378203203246 440.3749824959978L339.31378203203246 440.3749824959978Q352.7827735720135 443.41115804697677 360.1148145302286 453.29487845761037Q367.4468554884437 463.1785988682439 367.4468554884437 474.58040705436696L367.4468554884437 474.58040705436696Q367.4468554884437 484.1088303260562 361.8590004850463 492.92665931985675Q356.2711454816489 501.7767880535613 343.96494457821296 506.42795059974185L343.96494457821296 506.42795059974185Q331.85254211420124 511.0791131459223 316.9623620184428 511.0791131459223ZM411.63289967715855 511.0791131459223L411.63289967715855 511.0791131459223Q402.7827709434539 511.0791131459223 394.9985336265824 507.81683941561516Q387.2142963097109 504.55456568530803 382.3370355842021 497.48092264632515Q377.4274751187894 490.37497986743824 376.7491805808047 479.4576677798757L376.7491805808047 479.4576677798757Q376.5230824014765 478.0687789640023 376.5230824014765 476.64759040822497Q376.5230824014765 475.2587015923516 376.5230824014765 473.8698127764783L376.5230824014765 473.8698127764783Q376.5230824014765 458.5274363220634 381.4972423466973 441.53777313254295Q386.5037020318222 424.58040968292653 395.57992894485494 409.1088342688955Q404.6561558578877 393.6372588548645 416.9623567613237 382.71994676730196L416.9623567613237 382.71994676730196Q427.2013743109016 373.6437198542692 438.15098613836824 368.99255730808864Q449.0682982259308 364.3413947619082 463.2478840438005 364.3413947619082L463.2478840438005 364.3413947619082Q470.2246278630713 364.3413947619082 476.1677800054131 365.85948253739764Q482.0786324078508 367.34527057298305 484.66261160017325 370.15534794463383L484.66261160017325 370.15534794463383Q485.82540223671845 371.3181385811789 485.82540223671845 373.6437198542692L485.82540223671845 373.6437198542692Q485.82540223671845 375.0326086701425 485.2440069184458 376.3245982663038Q484.66261160017325 377.584288122561 483.49982096362817 377.584288122561L483.49982096362817 377.584288122561Q482.33703032708297 377.584288122561 481.1742396905379 376.4214974860159L481.1742396905379 376.4214974860159Q477.201371682342 373.1592237557087 473.03470523472197 373.1592237557087L473.03470523472197 373.1592237557087Q466.51015777410765 373.1592237557087 459.75951213416516 378.87627771872224Q453.0088664942226 384.56103194183174 447.194913311497 391.08557940244606L447.194913311497 391.08557940244606Q440.7026655907867 398.99901567893374 434.0812189104603 410.72382126409707Q427.42747249022983 422.4809265891645 422.09801540606463 434.334931133944L422.09801540606463 434.334931133944Q418.8357416757575 441.53777313254295 414.8951734074657 451.905989641737Q410.9223053992698 462.241906411027 408.14452776752313 472.577823180317Q405.3344503958724 482.94603968951105 405.3344503958724 490.6010780467665L405.3344503958724 490.6010780467665Q405.3344503958724 495.96283487083565 407.0786363506901 499.22510860114284Q408.82282230550777 502.48738233145 413.2478866723601 502.48738233145L413.2478866723601 502.48738233145Q422.77630994404933 502.48738233145 435.24400954700536 487.9524993746359Q447.6794094100574 473.4176164178218 460.9223027707103 445.5106411407388L460.9223027707103 445.5106411407388Q466.2840595947795 433.88273477528753 468.8357390471979 422.83622372810885Q471.3874184996164 411.7897126809301 471.3874184996164 402.9395839472256L471.3874184996164 402.9395839472256Q471.3874184996164 389.69669058657274 466.73625595343594 384.3349337625035L466.73625595343594 384.3349337625035Q465.57346531689075 382.71994676730196 465.57346531689075 382.23545066874146L465.57346531689075 382.23545066874146Q465.57346531689075 380.6204636735399 468.38354268854147 380.6204636735399L468.38354268854147 380.6204636735399Q470.4507260423995 380.6204636735399 472.5502091361615 381.5571561307568L472.5502091361615 381.5571561307568Q481.62643604919435 385.4977243990487 485.2440069184458 393.76645781448065Q488.8292780477933 402.00289149000866 488.8292780477933 411.7897126809301L488.8292780477933 411.7897126809301Q488.8292780477933 422.4809265891645 485.82540223671845 433.3982386767271Q482.78922668573944 444.3478505041937 479.3008547761041 451.77679068212086L479.3008547761041 451.77679068212086Q473.2608034140502 465.0196840427737 464.18457650101743 478.29487714333055Q455.10834958798466 491.5377705039834 444.19103750042206 499.9034031391275L444.19103750042206 499.9034031391275Q437.4403918604795 505.26515996319665 428.8486610460072 508.17213655455953Q420.2246304916308 511.0791131459223 411.63289967715855 511.0791131459223ZM530.2375446047615 514.3413868762294L530.2375446047615 514.3413868762294Q507.9184243310758 514.3413868762294 494.4171330511907 502.93957869010643Q480.9158417713056 491.5377705039834 480.9158417713056 468.99255205096955L480.9158417713056 468.99255205096955Q480.9158417713056 458.3013381427352 485.2440069184458 449.0959122700863Q489.539872325682 439.9227861373414 500.23108623391636 438.0494012229076L500.23108623391636 438.0494012229076Q499.0682955973712 441.53777313254295 499.0682955973712 445.9628374993952L499.0682955973712 445.9628374993952Q499.0682955973712 453.16567949799423 501.0385797315171 462.11270745141087Q503.008863865663 471.0920351447316 505.1083469594251 477.5842828654419L505.1083469594251 477.5842828654419Q508.3706206897323 486.8866079578029 514.0553749128418 493.5080546381293Q519.7724288758553 500.16180105835974 526.3938755561817 503.7470721877072Q533.0153222365082 507.3646430569587 538.3770790605772 507.3646430569587L538.3770790605772 507.3646430569587Q543.4804379654142 507.3646430569587 546.6135127361053 504.2315682862677Q549.7788872467004 501.0661937756726 549.7788872467004 493.8633517770736L549.7788872467004 493.8633517770736Q549.7788872467004 484.78712486404083 544.8693267812876 476.06619508995243Q539.9920660557789 467.34526531586397 533.2414204158363 458.5274363220634Q526.5230745157978 449.6773075883588 520.4507234138399 440.8594785945583L520.4507234138399 440.8594785945583Q515.7995608676595 433.62433685605527 512.5695868772563 426.06619771851194Q509.3073131469491 418.5080585809686 509.3073131469491 410.626922044385L509.3073131469491 410.626922044385Q509.3073131469491 398.06232322171684 514.8951681503465 389.3413934476284Q520.4507234138399 380.6204636735399 529.882247465817 376.0662003470715Q539.3137715177943 371.54423676050715 550.9416778832456 371.54423676050715L550.9416778832456 371.54423676050715Q556.2711349674107 371.54423676050715 562.795682428025 372.2548310383958Q569.2879301487353 372.93312557638046 575.1018833314608 375.25870684947074L575.1018833314608 375.25870684947074L578.5902552410962 376.64759566534406Q583.2414177872768 369.9292497653056 589.0553709700025 367.1191723936548Q594.869324152728 364.3413947619082 599.2943885195803 364.3413947619082L599.2943885195803 364.3413947619082Q602.7827604292156 364.3413947619082 605.0114424825938 365.6010846181654Q607.207824796068 366.89307421432665 607.207824796068 368.99255730808864L607.207824796068 368.99255730808864Q607.207824796068 371.0920404018507 604.8822435229777 373.1592237557087L604.8822435229777 373.1592237557087Q595.8060166099449 381.78325431008506 590.7026577051081 389.4382926673405L590.7026577051081 389.4382926673405Q585.5669990603669 396.8995325851717 581.0450354738027 406.55715481647707Q576.5230718872383 416.1824773078784 575.8124776093496 425.96929849879984L575.8124776093496 425.96929849879984Q574.4235887934763 426.4214948574563 573.9390926949156 426.4214948574563L573.9390926949156 426.4214948574563Q571.3874132424974 426.4214948574563 570.2246226059522 422.83622372810885Q569.061831969407 419.21865285885735 569.061831969407 413.63079785545995L569.061831969407 413.63079785545995Q569.061831969407 407.1385501347496 570.4507207852803 399.322013077974Q571.8719093410577 391.5377757611025 574.1974906141479 385.4977243990487L574.1974906141479 385.4977243990487Q572.7763020583707 384.1088355831753 570.4507207852803 383.0429441663423Q568.1251395121901 382.0093524894133 565.1212637011151 382.0093524894133L565.1212637011151 382.0093524894133Q559.5334086977177 382.0093524894133 554.8822461515372 386.43441685626556Q550.2310836053568 390.8594812231179 547.3241070139939 397.25482972411606Q544.4171304226311 403.65017822511425 544.4171304226311 409.69022958716806L544.4171304226311 409.69022958716806Q544.4171304226311 417.60366586365575 548.0347012918826 425.4848024002394Q551.6199724212302 433.3982386767271 556.8525302856831 441.0855767738865Q562.0850881501362 448.7406151311419 566.7362506963168 456.42795322830136L566.7362506963168 456.42795322830136Q570.9352168838409 463.6307952269003 572.9055010179868 470.02614372789856Q574.8757851521327 476.42149222889674 574.8757851521327 482.00934723229415L574.8757851521327 482.00934723229415Q574.8757851521327 496.8995273280526 562.6664834684088 505.620457102141Q550.457181784685 514.3413868762294 530.2375446047615 514.3413868762294Z " fill="#ee4e34" transform="matrix(0.4990966666041246,0,0,0.4990966666041245,-3.905995278219954,80.72618151693862)"/><path d="M734.3875560580168 493.4772573162138L734.3875560580168 493.4772573162138Q725.6041571102572 493.4772573162138 717.1050105556291 491.43064008566785Q708.6058640010009 489.38402285512194 702.0680589589792 485.29078839403013L702.0680589589792 485.29078839403013Q699.8224650532413 483.6421245138681 698.9981331131603 480.48692295010983Q698.1738011730794 477.3032961470384 698.1738011730794 472.8121083355627L698.1738011730794 472.8121083355627Q698.1738011730794 464.824616088571 701.2437270188982 453.880898953013Q704.3136528647171 442.937181817455 709.0322425906979 431.2544084597554Q713.7224070773657 419.60006034136893 718.8389501537304 409.1679975134474Q723.9554932300953 398.7075094462127 728.0487276911871 391.9707277289991L728.0487276911871 391.9707277289991Q731.942985477087 386.02985271255335 737.6848838183407 383.6705578495629Q743.3983569202815 381.3112629865725 749.7371852871111 381.3112629865725L749.7371852871111 381.3112629865725Q763.4665758753566 381.3112629865725 761.4199586448107 383.7842588068155L761.4199586448107 383.7842588068155Q757.1277475085269 388.7018252079883 752.4091577825461 396.6608922156668Q747.6905680565652 404.6483844626585 743.5973335954734 412.9485543420947Q739.5040991343815 421.2202989822178 736.6615752030677 427.3601506738555L736.6615752030677 427.3601506738555Q729.896368246541 441.6864712876769 724.7798251701762 455.30216091866987Q719.6632820938114 468.91785054966283 717.8156415384575 477.3032961470384L717.8156415384575 477.3032961470384Q717.4176881880735 478.9519600272004 717.4176881880735 479.97526864247334L717.4176881880735 479.97526864247334Q717.4176881880735 482.22086254821124 718.8389501537304 483.95480214631266Q720.2886373587005 485.688741744414 723.9554932300953 486.31409700930305L723.9554932300953 486.31409700930305Q725.4051804350652 486.51307368449505 726.7127414434697 486.6267746417476Q728.0487276911871 486.71205035968705 729.4984148961571 486.71205035968705L729.4984148961571 486.71205035968705Q737.2585052286437 486.71205035968705 743.8247355099785 482.8462178131003Q750.3625405520002 478.9519600272004 752.0112044321621 471.5898230450978L752.0112044321621 471.5898230450978Q752.6081344577381 469.1168272248548 752.4091577825461 466.2458780542279L752.4091577825461 466.2458780542279Q752.4091577825461 461.3567368923682 750.9878958168891 455.4158618759224Q749.5382086119191 449.47498685947664 746.7809603985447 444.35844378311185Q744.0237121851704 439.24190070674706 739.7315010488867 436.7973301258172L739.7315010488867 436.7973301258172Q737.6848838183407 435.5466195960392 737.6848838183407 433.9263809551903L737.6848838183407 433.9263809551903Q737.6848838183407 432.07874039983636 739.9304777240786 431.6807870494524L739.9304777240786 431.6807870494524Q744.8480441252514 431.6807870494524 750.0498629195556 427.7865292635526Q755.2801069531729 423.89227147765274 759.6860190467094 417.553443110823Q764.0635059009326 411.2146147439933 766.84917935362 403.7387768046381Q769.6064275669944 396.26293886528293 769.6064275669944 389.2987552335642L769.6064275669944 389.2987552335642Q769.6064275669944 379.49204767053163 763.7792535078011 375.6830656025712Q757.9236542092947 371.90250877392396 749.9645872016163 371.90250877392396L749.9645872016163 371.90250877392396Q743.1993802450895 371.90250877392396 736.0362199381788 373.8638502865304Q728.873059631268 375.79676655982377 723.5575398797113 378.2413371407536L723.5575398797113 378.2413371407536Q712.1021684365169 383.5852821316235 704.4273538219696 391.9707277289991Q696.7525392074224 400.35617332637474 695.5018286776444 408.3436655733664L695.5018286776444 408.3436655733664Q694.4785200623714 407.9172869836693 691.6359961310577 407.32035695809344Q688.7650469604307 406.6950016932044 686.0077987470564 404.8473611378505Q683.2221252943689 403.0281458218097 682.824171943985 399.53184138629376L682.824171943985 399.53184138629376Q682.1988166790959 392.368681079383 686.4057520974404 386.7404836953818Q690.6126875157847 381.1122863113805 698.0601002158269 377.13275280754124Q705.5359381551821 373.1247940643888 714.6604399746992 370.48124680826703Q723.7565165549033 367.8092743128321 733.1652707675519 366.58698902236716Q742.5740249802004 365.36470373190224 750.760493902384 365.36470373190224L750.760493902384 365.36470373190224Q754.2567983379 365.36470373190224 757.3267241837189 365.56368040709424Q760.3966500295378 365.7626570822862 762.8412206104676 366.1890356719832L762.8412206104676 366.1890356719832Q779.2141584548349 368.832582928105 786.3773187617455 376.7063742178442Q793.5404790686563 384.6085907468964 793.5404790686563 394.21632163473697L793.5404790686563 394.21632163473697Q793.5404790686563 402.8007439073046 788.4239359922915 411.10091378674076Q783.3073929159267 419.401083666177 774.4102930109146 425.0292810501782Q765.5131931059025 430.6574784341795 754.057821662708 431.2544084597554L754.057821662708 431.2544084597554Q765.9111464562865 433.9263809551903 772.3636757803687 442.62450418501044Q778.816205104451 451.3226274148306 778.816205104451 461.3567368923682L778.816205104451 461.3567368923682Q778.816205104451 469.7421824897438 773.8986387032782 477.5022728222304Q768.9810723021053 485.29078839403013 758.1510561237999 489.38402285512194L758.1510561237999 489.38402285512194Q747.4915913813732 493.4772573162138 734.3875560580168 493.4772573162138ZM814.4330299638125 492.8519020513247L814.4330299638125 492.8519020513247Q801.328994640456 492.8519020513247 793.9668576583533 488.55969091504096Q786.5762954369376 484.26747977875715 786.5762954369376 471.98777639548166L786.5762954369376 471.98777639548166Q786.5762954369376 463.4033541229141 789.361968889625 453.880898953013Q792.1192171029994 444.35844378311185 797.2357601793642 435.3476429208472Q802.3523032557289 426.3368420585826 809.3164868874477 418.97470507647995Q816.2522452798532 411.61256809437725 824.6661161165421 407.2066560008409Q833.0515617139176 402.8007439073046 842.4603159265662 402.8007439073046L842.4603159265662 402.8007439073046Q848.600167618204 402.8007439073046 854.1146640449526 403.8240525225775Q859.6575857110145 404.8473611378505 863.1254649072173 408.4289412913058Q866.6217693427332 412.0105214447612 866.6217693427332 419.60006034136893L866.6217693427332 419.60006034136893Q866.6217693427332 427.5875525883606 862.3011329671363 440.26520932202004Q858.0089218308525 452.9428660556794 850.6467848487498 465.02359276376296L850.6467848487498 465.02359276376296Q850.2488314983659 466.6722566439249 850.2488314983659 468.2924952847738L850.2488314983659 468.2924952847738Q850.2488314983659 470.5665144298248 851.1584391563863 472.8121083355627Q852.0680468144068 475.05770224130055 854.5410426346498 475.05770224130055L854.5410426346498 475.05770224130055Q857.8099451556606 475.05770224130055 861.2778243518634 470.5665144298248L861.2778243518634 470.5665144298248Q864.9731054625713 465.44997135346 868.8673632484711 458.28681104654936Q872.761621034371 451.1236507396386 874.8082382649169 446.60403768884976L874.8082382649169 446.60403768884976Q875.2061916153009 445.38175239838483 876.6274535809578 445.38175239838483L876.6274535809578 445.38175239838483Q878.0771407859277 445.38175239838483 879.1857251191401 446.60403768884976Q880.3227346916656 447.8263229793147 879.2994260763927 449.47498685947664L879.2994260763927 449.47498685947664Q877.6507621962306 452.54491270529553 875.0072149401088 457.9741334141048Q872.3352424446739 463.4033541229141 868.8673632484711 468.91785054966283Q865.3710588129552 474.4323469764115 861.2778243518634 477.7296747367355L861.2778243518634 477.7296747367355Q858.2078985060446 480.17424531766534 854.7400193098417 480.17424531766534L854.7400193098417 480.17424531766534Q850.6467848487498 480.17424531766534 848.600167618204 478.241329044372Q846.5535503876581 476.27998753176547 845.3312650971932 472.6131316603707L845.3312650971932 472.6131316603707Q838.7650348158584 481.39653060813026 830.8059678081797 487.1384289493841Q822.818475561188 492.8519020513247 814.4330299638125 492.8519020513247ZM810.5387721779126 486.51307368449505L810.5387721779126 486.51307368449505Q812.7843660836505 486.51307368449505 816.6786238695504 480.5721986680493Q820.5728816554501 474.6597488909166 825.064069466926 465.33627039620745Q829.5552572784018 456.0127919014983 833.8758936539987 446.40506101365776L833.8758936539987 446.40506101365776Q834.6718003547664 444.7563971334958 836.5194409101205 440.3789102792726Q838.3670814654744 435.97299818573623 840.4136986960203 430.54377747692695Q842.4603159265662 425.11455676811767 843.881577892223 419.9980136917529Q845.3312650971932 414.8814706153881 845.3312650971932 411.8115447695692L845.3312650971932 411.8115447695692Q845.3312650971932 408.3436655733664 843.2846478666472 408.3436655733664L843.2846478666472 408.3436655733664Q841.4370073112932 408.3436655733664 838.5660581406663 411.92524572682174Q835.6951089700394 415.5068258802771 832.2272297738366 421.2202989822178Q828.7593505776339 426.9621973234716 825.4620228173098 433.5000023654933Q822.1931202962991 440.0662326468281 819.7485497153692 445.7797057487687L819.7485497153692 445.7797057487687Q817.2755538951262 451.52160409002255 814.6320066390044 458.68476439693325Q811.9600341435695 465.84792470384394 810.2260945454681 472.3004540279262Q808.4921549473667 478.75298335200847 808.4921549473667 482.6188158985952L808.4921549473667 482.6188158985952Q808.4921549473667 486.51307368449505 810.5387721779126 486.51307368449505ZM897.3210278009219 492.8519020513247L897.3210278009219 492.8519020513247Q884.2169924775654 492.8519020513247 876.8548554954629 488.55969091504096Q869.464293274047 484.26747977875715 869.464293274047 471.98777639548166L869.464293274047 471.98777639548166Q869.464293274047 463.4033541229141 872.2499667267346 453.880898953013Q875.0072149401088 444.35844378311185 880.1237580164736 435.3476429208472Q885.2403010928384 426.3368420585826 892.2044847245571 418.97470507647995Q899.1402431169627 411.61256809437725 907.5541139536515 407.2066560008409Q915.9395595510271 402.8007439073046 925.3483137636757 402.8007439073046L925.3483137636757 402.8007439073046Q931.4881654553135 402.8007439073046 937.0026618820622 403.8240525225775Q942.545583548124 404.8473611378505 946.0134627443268 408.4289412913058Q949.5097671798428 412.0105214447612 949.5097671798428 419.60006034136893L949.5097671798428 419.60006034136893Q949.5097671798428 427.5875525883606 945.1891308042458 440.26520932202004Q940.896919667962 452.9428660556794 933.5347826858593 465.02359276376296L933.5347826858593 465.02359276376296Q933.1368293354755 466.6722566439249 933.1368293354755 468.2924952847738L933.1368293354755 468.2924952847738Q933.1368293354755 470.5665144298248 934.0464369934958 472.8121083355627Q934.9560446515162 475.05770224130055 937.4290404717592 475.05770224130055L937.4290404717592 475.05770224130055Q940.6979429927701 475.05770224130055 944.1658221889728 470.5665144298248L944.1658221889728 470.5665144298248Q947.8611032996807 465.44997135346 951.7553610855806 458.28681104654936Q955.6496188714805 451.1236507396386 957.6962361020264 446.60403768884976L957.6962361020264 446.60403768884976Q958.0941894524103 445.38175239838483 959.5154514180672 445.38175239838483L959.5154514180672 445.38175239838483Q960.9651386230372 445.38175239838483 962.0737229562496 446.60403768884976Q963.2107325287751 447.8263229793147 962.1874239135021 449.47498685947664L962.1874239135021 449.47498685947664Q960.5387600333402 452.54491270529553 957.8952127772184 457.9741334141048Q955.2232402817834 463.4033541229141 951.7553610855806 468.91785054966283Q948.2590566500646 474.4323469764115 944.1658221889728 477.7296747367355L944.1658221889728 477.7296747367355Q941.095896343154 480.17424531766534 937.6280171469512 480.17424531766534L937.6280171469512 480.17424531766534Q933.5347826858593 480.17424531766534 931.4881654553135 478.241329044372Q929.4415482247675 476.27998753176547 928.2192629343026 472.6131316603707L928.2192629343026 472.6131316603707Q921.6530326529678 481.39653060813026 913.6939656452893 487.1384289493841Q905.7064733982976 492.8519020513247 897.3210278009219 492.8519020513247ZM893.4267700150222 486.51307368449505L893.4267700150222 486.51307368449505Q895.67236392076 486.51307368449505 899.5666217066598 480.5721986680493Q903.4608794925597 474.6597488909166 907.9520673040354 465.33627039620745Q912.4432551155112 456.0127919014983 916.7638914911081 446.40506101365776L916.7638914911081 446.40506101365776Q917.559798191876 444.7563971334958 919.4074387472299 440.3789102792726Q921.2550793025839 435.97299818573623 923.3016965331298 430.54377747692695Q925.3483137636757 425.11455676811767 926.7695757293326 419.9980136917529Q928.2192629343026 414.8814706153881 928.2192629343026 411.8115447695692L928.2192629343026 411.8115447695692Q928.2192629343026 408.3436655733664 926.1726457037566 408.3436655733664L926.1726457037566 408.3436655733664Q924.3250051484027 408.3436655733664 921.4540559777759 411.92524572682174Q918.583106807149 415.5068258802771 915.1152276109461 421.2202989822178Q911.6473484147433 426.9621973234716 908.3500206544194 433.5000023654933Q905.0811181334085 440.0662326468281 902.6365475524786 445.7797057487687L902.6365475524786 445.7797057487687Q900.1635517322356 451.52160409002255 897.5200044761139 458.68476439693325Q894.848031980679 465.84792470384394 893.1140923825776 472.3004540279262Q891.3801527844762 478.75298335200847 891.3801527844762 482.6188158985952L891.3801527844762 482.6188158985952Q891.3801527844762 486.51307368449505 893.4267700150222 486.51307368449505ZM965.655303109705 492.65292537613277L965.655303109705 492.65292537613277Q962.585377263886 492.65292537613277 960.0271057257037 492.1412710684963Q957.4688341875212 491.6296167608598 954.0009549913185 490.2083547952029L954.0009549913185 490.2083547952029Q949.5097671798428 488.360714239849 947.5484256672362 483.7558254711207Q945.6155093939428 479.1509367023924 945.6155093939428 472.8121083355627L945.6155093939428 472.8121083355627Q945.6155093939428 465.02359276376296 948.1737809321253 455.61483855111436Q950.7320524703076 446.2060843384658 954.6263102562075 437.3942601513931L954.6263102562075 437.3942601513931Q958.2931661276023 429.2077912292095 960.8514376657847 423.18164049482425Q963.409709203967 417.12706452112593 966.1669574173413 412.63587670965023Q968.9526308700289 408.1446888981744 973.0458653311207 404.5631087447191Q977.1390997922126 400.9815285912638 983.4779281590422 397.6842008309398L983.4779281590422 397.6842008309398Q988.3954945602151 395.4386069252019 994.1089676621557 395.4386069252019L994.1089676621557 395.4386069252019Q999.8508660034096 395.4386069252019 1004.7684324045824 397.0872708053639L1004.7684324045824 397.0872708053639Q1006.8150496351283 397.6842008309398 1006.8150496351283 398.7075094462127L1006.8150496351283 398.7075094462127Q1006.8150496351283 399.53184138629376 1005.3653624301583 400.35617332637474L1005.3653624301583 400.35617332637474Q1003.5177218748044 401.57845861683967 1000.4477960289855 404.5631087447191Q997.3778701831666 407.51933363328544 993.9099909869637 412.43690003445823L993.9099909869637 412.43690003445823Q992.0623504316098 415.08044729058 988.992424585791 419.9980136917529Q985.9224987399721 424.91558009292567 984.3022600991233 427.98550593874455L984.3022600991233 427.98550593874455Q982.6535962189612 430.8564551093715 981.6302876036883 432.78937138266485Q980.6069789884153 434.7507128952713 980.2090256380314 435.7740215105443L980.2090256380314 435.7740215105443L976.7127212025155 442.7097799029499Q978.5603617578695 439.639854057131 982.1419419113247 434.9496895704633Q985.7235220647801 430.2310998444824 990.1294341583164 425.2282577253702Q994.5353462518528 420.1969903669448 998.8275573881366 416.103755905853L998.8275573881366 416.103755905853Q1003.1197685244204 412.0105214447612 1008.1226106435327 408.03098794092193Q1013.153878001958 404.0514544370826 1018.2704210783228 401.4931828989002Q1023.3869641546876 398.9349113607178 1027.6791752909714 398.9349113607178L1027.6791752909714 398.9349113607178Q1031.7724097520631 398.9349113607178 1035.041312273074 401.0668043092032Q1038.310214794085 403.22712249700163 1038.310214794085 405.47271640273954L1038.310214794085 405.47271640273954Q1038.310214794085 407.9172869836693 1034.4443822474982 408.9405955989423L1034.4443822474982 408.9405955989423Q1026.0305114108094 411.2146147439933 1016.4227805229689 416.0184801879136Q1006.8150496351283 420.82234563183385 999.2255107385206 426.1378653833906L999.2255107385206 426.1378653833906Q999.2255107385206 429.8331464940985 999.8508660034096 436.17197486092823Q1000.4477960289855 442.5108032277579 1001.3858289263189 449.0770335090927Q1002.2954365843393 455.61483855111436 1003.3187451996123 460.10602636259017L1003.3187451996123 460.10602636259017Q1004.1430771396933 463.6023307981061 1005.4790633874109 468.2072195668344Q1006.8150496351283 472.8121083355627 1009.1459192588056 476.1947118138261Q1011.5052141217959 479.5488900527763 1014.7741166428068 479.5488900527763L1014.7741166428068 479.5488900527763Q1016.0248271725849 479.5488900527763 1018.0714444031308 478.5255814375033L1018.0714444031308 478.5255814375033Q1018.8673511038987 477.7296747367355 1018.8673511038987 478.9519600272004L1018.8673511038987 478.9519600272004Q1018.8673511038987 480.3732219928573 1017.8440424886257 480.9985772577463L1017.8440424886257 480.9985772577463Q1011.5052141217959 486.31409700930305 1005.6780400626028 489.38402285512194Q999.8508660034096 492.4539487009408 995.1322762774287 492.4539487009408L995.1322762774287 492.4539487009408Q989.191401260983 492.4539487009408 986.3488773296692 487.1384289493841L986.3488773296692 487.1384289493841Q983.8758815094261 483.0451944882922 982.8525728941531 478.0139271298669Q981.8292642788803 473.01108501075464 981.4313109284963 468.0935186095818L981.4313109284963 468.0935186095818Q981.4313109284963 466.87123331911687 981.3176099712439 465.33627039620745Q981.2323342533043 463.80130747329804 981.2323342533043 462.1526435931361L981.2323342533043 462.1526435931361Q981.2323342533043 456.43917049119534 981.6302876036883 450.6119964320021Q982.0282409540723 444.7563971334958 982.4546195437692 443.1361584926469L982.4546195437692 443.1361584926469Q978.1624084074856 445.7797057487687 974.4671272967776 452.431211748043Q970.7718461860698 459.0827177473172 968.6399532375843 466.87123331911687Q966.4796350497859 474.6597488909166 966.4796350497859 480.9985772577463L966.4796350497859 480.9985772577463Q966.4796350497859 483.86952642837326 966.9912893574224 486.2003960520505Q967.5029436650589 488.55969091504096 968.7252289555238 489.7819762055059L968.7252289555238 489.7819762055059Q969.9759394853019 491.2316634104759 968.7252289555238 492.0559953505569L968.7252289555238 492.0559953505569Q967.9293222547559 492.65292537613277 965.655303109705 492.65292537613277ZM1092.1476180531677 493.4772573162138L1092.1476180531677 493.4772573162138Q1084.359102481368 493.4772573162138 1077.5086198069016 490.60630814558687Q1070.6581371324355 487.73535897496 1066.3659259961516 481.5102315653828Q1062.073714859868 475.25667891649255 1061.448359594979 465.648948028652L1061.448359594979 465.648948028652Q1061.249382919787 464.4266627381871 1061.249382919787 463.175952208409Q1061.249382919787 461.9536669179441 1061.249382919787 460.73138162747915L1061.249382919787 460.73138162747915Q1061.249382919787 447.22939295373874 1065.6552950133232 432.27771707502836Q1070.0327818675464 417.3544664356311 1078.020274114538 403.7387768046381Q1086.0077663615298 390.12308717364516 1096.8662077791485 380.5153562858046L1096.8662077791485 380.5153562858046Q1105.8485834021 372.52786403881294 1115.4847395292536 368.4346295777211Q1125.092470417094 364.3413951166293 1137.5711504755616 364.3413951166293L1137.5711504755616 364.3413951166293Q1143.7110021671992 364.3413951166293 1148.9412462008167 365.67738136434673Q1154.171490234434 366.9849423727511 1156.417084140172 369.4579381929941L1156.417084140172 369.4579381929941Q1157.440392755445 370.48124680826703 1157.440392755445 372.52786403881294L1157.440392755445 372.52786403881294Q1157.440392755445 373.75014932927786 1156.9287384478084 374.88715890180333Q1156.417084140172 375.99574323501577 1155.393775524899 375.99574323501577L1155.393775524899 375.99574323501577Q1154.370466909626 375.99574323501577 1153.347158294353 374.9724346197428L1153.347158294353 374.9724346197428Q1149.8508538588371 372.1014854491159 1146.1839979874424 372.1014854491159L1146.1839979874424 372.1014854491159Q1140.4420996461886 372.1014854491159 1134.5012246297429 377.13275280754124Q1128.5887748526102 382.1355949266535 1123.4722317762453 387.8774932679073L1123.4722317762453 387.8774932679073Q1117.7303334349915 394.841676899626 1111.9031593757982 405.160038770295Q1106.075985316605 415.5068258802771 1101.3573955906243 425.93888870819865L1101.3573955906243 425.93888870819865Q1098.4864464199973 432.27771707502836 1095.0185672237944 441.4022188945455Q1091.5222627882786 450.4982954747496 1089.0776922073487 459.5943720549536Q1086.6331216264189 468.71887387447083 1086.6331216264189 475.4556555916845L1086.6331216264189 475.4556555916845Q1086.6331216264189 480.17424531766534 1088.1680845493283 483.0451944882922Q1089.7030474722378 485.91614365891917 1093.5688800188245 485.91614365891917L1093.5688800188245 485.91614365891917Q1101.9827508555131 485.91614365891917 1112.9264679910711 473.1247859680072Q1123.8701851266292 460.3334282770952 1135.5245332450158 435.7740215105443L1135.5245332450158 435.7740215105443Q1140.2431229709964 425.5409353578147 1142.4887168767345 415.8195035127216Q1144.7343107824722 406.0980716676285 1144.7343107824722 398.30955609582884L1144.7343107824722 398.30955609582884Q1144.7343107824722 386.6552079774424 1140.6410763213805 381.9366182514615L1140.6410763213805 381.9366182514615Q1139.6177677061075 380.5153562858046 1139.6177677061075 380.0889776961076L1139.6177677061075 380.0889776961076Q1139.6177677061075 378.6677157304507 1142.0907635263507 378.6677157304507L1142.0907635263507 378.6677157304507Q1143.9384040817044 378.6677157304507 1145.7576193977452 379.49204767053163L1145.7576193977452 379.49204767053163Q1153.7451116447369 382.95992686673446 1156.9287384478084 390.2367881308977Q1160.0839400115667 397.4852241557478 1160.0839400115667 406.0980716676285L1160.0839400115667 406.0980716676285Q1160.0839400115667 415.5068258802771 1157.440392755445 425.11455676811767Q1154.7684202600099 434.7507128952713 1151.698494414191 441.288517937293L1151.698494414191 441.288517937293Q1146.3829746626343 452.9428660556794 1138.3954824156426 464.625639413379Q1130.407990168651 476.27998753176547 1120.8002592808105 483.6421245138681L1120.8002592808105 483.6421245138681Q1114.8593842643645 488.360714239849 1107.29827060707 490.91898577803136Q1099.7087317104624 493.4772573162138 1092.1476180531677 493.4772573162138ZM1166.4511936177096 514.3413829720569L1166.4511936177096 514.3413829720569Q1156.8150374905558 514.3413829720569 1153.4324340122923 508.00255460522715Q1150.0782557733423 501.66372623839743 1150.0782557733423 493.2782806410218L1150.0782557733423 493.2782806410218Q1150.277232448534 484.46645645394915 1153.4324340122923 472.6984073783101Q1156.6160608153639 460.9303583026711 1161.6189029344762 448.1390006117592Q1166.6501702929013 435.3476429208472 1172.16466671965 423.6932948024608L1172.16466671965 423.6932948024608L1168.2704089337503 423.6932948024608Q1167.0481236432854 423.6932948024608 1167.0481236432854 422.4710095119958L1167.0481236432854 422.4710095119958Q1167.0481236432854 421.4477008967229 1168.185133215811 420.1969903669448Q1169.2937175490233 418.97470507647995 1170.7434047539932 418.97470507647995L1170.7434047539932 418.97470507647995L1174.211283950196 418.97470507647995Q1177.906565060904 411.8115447695692 1181.3744442571067 405.5864173599921Q1184.8707486926228 399.33286471110176 1187.7132726239365 394.841676899626L1187.7132726239365 394.841676899626Q1192.8298157003012 386.85418465263433 1198.0600597339185 383.1589035419264Q1203.290303767536 379.49204767053163 1212.6990579801845 379.49204767053163L1212.6990579801845 379.49204767053163Q1221.482456927944 379.49204767053163 1224.7797846882681 380.2026786533601Q1228.0486872092788 380.91330963618856 1228.0486872092788 382.3345716018454L1228.0486872092788 382.3345716018454Q1228.0486872092788 383.98323548200744 1224.552382773763 386.4278060629373Q1221.08450357756 388.90080188318024 1218.412531082125 391.9707277289991L1218.412531082125 391.9707277289991Q1215.7689838260035 394.841676899626 1211.0503941000225 402.0901129244761Q1206.360229613355 409.36697418863935 1201.0162846224848 418.97470507647995L1201.0162846224848 418.97470507647995L1221.482456927944 418.97470507647995Q1221.9088355176411 418.97470507647995 1221.9088355176411 419.60006034136893L1221.9088355176411 419.60006034136893Q1221.9088355176411 420.4243922814499 1221.08450357756 422.0446309222988Q1220.2601716374793 423.6932948024608 1219.435839697398 423.6932948024608L1219.435839697398 423.6932948024608L1198.571714041555 423.6932948024608L1193.6541476403822 433.10204901510934Q1196.5250968110092 437.19528347620115 1197.8610830587268 443.7330885182228Q1199.197069306444 450.2993187995576 1199.197069306444 457.86043245685227L1199.197069306444 457.86043245685227Q1199.197069306444 466.6722566439249 1197.4347044690296 475.967309899321Q1195.7007648709282 485.29078839403013 1192.2328856747254 493.4772573162138Q1188.7365812392095 501.66372623839743 1183.8474400773498 507.0929469472067Q1178.9298736761768 512.522167656016 1172.3636433948423 513.7444529464809L1172.3636433948423 513.7444529464809Q1169.0947408738314 514.3413829720569 1166.4511936177096 514.3413829720569ZM1172.9889986597311 506.7802693147622L1172.9889986597311 506.7802693147622Q1175.433569240661 506.7802693147622 1177.7075883857121 503.51136679375134L1177.7075883857121 503.51136679375134Q1181.9997995219958 497.5704917773056 1185.155001085754 489.18504617993Q1188.3386278888256 480.7996005825544 1189.7598898544825 475.05770224130055L1189.7598898544825 475.05770224130055Q1190.7831984697555 470.96446778020874 1191.6075304098363 465.2225694389549Q1192.4318623499173 459.5090963370142 1192.4318623499173 453.56822132056845L1192.4318623499173 453.56822132056845Q1192.4318623499173 446.0071076632738 1190.5842217945635 439.639854057131L1190.5842217945635 439.639854057131Q1188.1396512136334 444.7563971334958 1184.6433467781176 452.6586136625481Q1181.1754675819147 460.5324049522872 1177.906565060904 469.3158039000467Q1174.637662539893 478.12762808711943 1172.3636433948423 486.42779796655566Q1170.1180494891041 494.69954260667873 1170.1180494891041 500.8393942983164L1170.1180494891041 500.8393942983164Q1170.1180494891041 506.7802693147622 1172.9889986597311 506.7802693147622ZM1279.6120713233106 496.3482064868407L1279.6120713233106 496.3482064868407Q1259.9702309579325 496.3482064868407 1248.088480925041 486.31409700930305Q1236.2351561314626 476.27998753176547 1236.2351561314626 456.43917049119534L1236.2351561314626 456.43917049119534Q1236.2351561314626 447.0304162785468 1240.0157129601098 438.92922307430257Q1243.7962697887572 430.8564551093715 1253.2050240014057 429.2077912292095L1253.2050240014057 429.2077912292095Q1252.1817153861327 432.27771707502836 1252.1817153861327 436.17197486092823L1252.1817153861327 436.17197486092823Q1252.1817153861327 442.5108032277579 1253.9440802235472 450.384594517497Q1255.6780198216486 458.28681104654936 1257.5256603770026 464.00028414849L1257.5256603770026 464.00028414849Q1260.3681843083164 472.18675307067366 1265.3994516667417 478.0139271298669Q1270.402293785854 483.86952642837326 1276.229467845047 487.0247279921315Q1282.0850671435537 490.2083547952029 1286.7752316302212 490.2083547952029L1286.7752316302212 490.2083547952029Q1291.2948446810103 490.2083547952029 1294.0520928943845 487.4511065818286Q1296.8093411077589 484.6654331291411 1296.8093411077589 478.3266047623114L1296.8093411077589 478.3266047623114Q1296.8093411077589 470.3391125153197 1292.517129971475 462.6642979007725Q1288.2249188351914 454.9894832862253 1282.2840438187454 447.22939295373874Q1276.3431688022997 439.44087738193906 1271.027649050743 431.6807870494524L1271.027649050743 431.6807870494524Q1266.9344145896512 425.3135334433096 1264.0634654190244 418.6620274440354Q1261.1925162483974 412.0105214447612 1261.1925162483974 405.0747630523556L1261.1925162483974 405.0747630523556Q1261.1925162483974 394.017344959545 1266.1100826495704 386.34253034499784Q1271.027649050743 378.6677157304507 1279.299393690866 374.65975698729824Q1287.5995635703023 370.68022348345903 1297.8326497230319 370.68022348345903L1297.8326497230319 370.68022348345903Q1302.5512394490127 370.68022348345903 1308.2647125509532 371.305578748348Q1314.0066108922072 371.90250877392396 1319.123153968572 373.9491260044698L1319.123153968572 373.9491260044698L1322.1930798143908 375.1714112949347Q1326.2863142754825 369.2589615178021 1331.4028573518474 366.78596569755916Q1336.5194004282123 364.3413951166293 1340.413658214112 364.3413951166293L1340.413658214112 364.3413951166293Q1343.483584059931 364.3413951166293 1345.4165003332243 365.44997944984163Q1347.3494166065177 366.58698902236716 1347.3494166065177 368.4346295777211L1347.3494166065177 368.4346295777211Q1347.3494166065177 370.2822701330751 1345.3027993759717 372.1014854491159L1345.3027993759717 372.1014854491159Q1337.343732368293 379.69102434572363 1332.8241193175043 386.4278060629373L1332.8241193175043 386.4278060629373Q1328.3329315060284 392.99403634427205 1324.324972762876 401.4931828989002Q1320.3454392590368 409.9639042142153 1319.7200839941477 418.576751726096L1319.7200839941477 418.576751726096Q1318.497798703683 418.97470507647995 1318.099845353299 418.97470507647995L1318.099845353299 418.97470507647995Q1315.8542514475612 418.97470507647995 1314.830942832288 415.8195035127216Q1313.8076342170152 412.63587670965023 1313.8076342170152 407.7183103084774L1313.8076342170152 407.7183103084774Q1313.8076342170152 402.0048372065367 1315.0299195074801 395.1259292927574Q1316.2522047979448 388.2754466182912 1318.2988220284908 382.95992686673446L1318.2988220284908 382.95992686673446Q1317.076536738026 381.73764157626954 1315.0299195074801 380.799608678936Q1312.9833022769342 379.8900010209156 1310.3113297814994 379.8900010209156L1310.3113297814994 379.8900010209156Q1305.3937633803264 379.8900010209156 1301.3005289192345 383.7842588068155Q1297.207294458143 387.6785165927153 1294.6490229199605 393.30671397671654Q1292.090751381778 398.9349113607178 1292.090751381778 404.25043111227455L1292.090751381778 404.25043111227455Q1292.090751381778 411.2146147439933 1295.2743781848494 418.1503731363989Q1298.4580049879207 425.11455676811767 1303.0628937566491 431.8797637246444Q1307.6677825253776 438.6165454418581 1311.7610169864693 445.38175239838483L1311.7610169864693 445.38175239838483Q1315.427872857864 451.72058076521455 1317.1618124559657 457.3487781492158Q1318.92417729338 462.97697553321706 1318.92417729338 467.89454193438985L1318.92417729338 467.89454193438985Q1318.92417729338 480.9985772577463 1308.179436833014 488.6733918722935Q1297.434696372648 496.3482064868407 1279.6120713233106 496.3482064868407ZM1345.729177965669 492.65292537613277L1345.729177965669 492.65292537613277Q1335.6950684881313 492.65292537613277 1331.715534984292 488.04803660740447Q1327.7075762411393 483.44314783867617 1327.7075762411393 476.47896420695747L1327.7075762411393 476.47896420695747Q1327.7075762411393 469.1168272248548 1330.464824454514 460.6176806702266Q1333.2504979072014 452.1469593549116 1336.8320780606566 444.87009809074834Q1340.413658214112 437.5932368265851 1342.460275444658 433.7274042799984L1342.460275444658 433.7274042799984Q1350.8457210420336 418.1503731363989 1361.7894381775916 410.9872128294882Q1372.7331553131496 403.8240525225775 1386.036167311698 403.8240525225775L1386.036167311698 403.8240525225775Q1390.754757037679 403.8240525225775 1397.0935854045085 404.25043111227455Q1403.4324137713384 404.6483844626585 1409.998644052673 404.6483844626585L1409.998644052673 404.6483844626585Q1413.267546573684 404.6483844626585 1416.337472419503 404.44940778746655Q1419.4073982653217 404.25043111227455 1422.2783474359487 404.25043111227455L1422.2783474359487 404.25043111227455L1423.0742541367165 404.25043111227455Q1426.5705585722324 404.25043111227455 1426.5705585722324 405.47271640273954L1426.5705585722324 405.47271640273954Q1426.5705585722324 406.2970483428205 1424.0975627519895 407.32035695809344L1424.0975627519895 407.32035695809344Q1421.4540154958675 408.3436655733664 1417.7587343851599 414.17083963255965Q1414.0918785137649 419.9980136917529 1410.1976207278651 428.1844826139365Q1406.3033629419651 436.3709515361202 1402.8354837457625 444.7563971334958L1402.8354837457625 444.7563971334958Q1400.9878431904085 449.47498685947664 1397.9179173445898 457.3487781492158Q1394.8479914987709 465.2225694389549 1393.398304293801 473.4090383611385L1393.398304293801 473.4090383611385Q1393.1993276186088 474.8587255661086 1393.1140519006694 475.967309899321Q1393.0003509434166 477.10431947184645 1393.0003509434166 478.12762808711943L1393.0003509434166 478.12762808711943Q1393.0003509434166 483.2441711634842 1395.6723234388517 483.2441711634842L1395.6723234388517 483.2441711634842Q1398.9412259598628 483.2441711634842 1402.4091051560654 479.7762919672814Q1405.9054095915815 476.27998753176547 1409.1743121125921 471.3624211305927L1409.1743121125921 471.3624211305927Q1412.045261283219 467.07020999430887 1414.8877852145326 461.75469024275213Q1417.7587343851599 456.43917049119534 1420.0043282908975 451.83428172246704Q1422.2783474359487 447.22939295373874 1423.3016560512217 445.38175239838483L1423.3016560512217 445.38175239838483Q1423.8985860767975 444.1594671079199 1424.9218946920703 444.1594671079199L1424.9218946920703 444.1594671079199Q1426.1441799825354 444.1594671079199 1427.1674885978084 445.8934067060213Q1428.1907972130814 447.6273463041227 1427.3948905123134 449.2760101842847L1427.3948905123134 449.2760101842847Q1423.5006327264136 456.8371238415793 1418.9810196756246 465.44997135346Q1414.4898318641488 474.0343936260276 1409.1743121125921 480.9985772577463L1409.1743121125921 480.9985772577463Q1400.1635112503275 492.65292537613277 1388.281761217436 492.65292537613277L1388.281761217436 492.65292537613277Q1379.2993855944844 492.65292537613277 1375.0924501761401 487.1384289493841Q1370.8855147577956 481.5955072833222 1370.8855147577956 473.8354169508356L1370.8855147577956 473.8354169508356Q1370.8855147577956 470.3391125153197 1371.5108700226847 467.07020999430887L1371.5108700226847 467.07020999430887Q1369.2652761169468 470.7654911050168 1365.9963735959361 476.59266516420996Q1362.699045835612 482.4198392234032 1358.520535656581 487.1384289493841Q1354.3136002382364 491.8285934360518 1349.1970571618715 492.4539487009408L1349.1970571618715 492.4539487009408Q1348.3727252217907 492.4539487009408 1347.576818521023 492.5676496581934Q1346.7524865809419 492.65292537613277 1345.729177965669 492.65292537613277ZM1353.2902916229634 482.22086254821124L1353.2902916229634 482.22086254821124Q1355.3369088535094 482.22086254821124 1358.7195123317726 478.5255814375033Q1362.1021158100364 474.8587255661086 1365.6836959634916 469.2305281821073Q1369.2652761169468 463.6023307981061 1371.9088233730688 457.86043245685227L1371.9088233730688 457.86043245685227Q1372.5341786379577 456.2401938160034 1374.8934735009482 450.8109731071941Q1377.2527683639385 445.38175239838483 1380.2089932525048 438.1048911342216Q1383.1652181410711 430.8564551093715 1386.23514398689 423.4943181272688Q1389.305069832709 416.103755905853 1391.5790889777597 410.58925947910427L1391.5790889777597 410.58925947910427Q1391.778065652952 409.9639042142153 1391.778065652952 409.1679975134474L1391.778065652952 409.1679975134474Q1391.778065652952 407.9172869836693 1390.555780362487 407.9172869836693L1390.555780362487 407.9172869836693Q1389.305069832709 407.9172869836693 1387.68483119186 408.8553198810029Q1386.036167311698 409.7649275390233 1384.6149053460413 410.78823615429627L1384.6149053460413 410.78823615429627Q1381.9429328506062 412.8348533848422 1377.764422671575 419.28738270892444Q1373.5574872532306 425.7399120330067 1368.9525984845025 434.32433430557427Q1364.347709715774 442.937181817455 1360.2544752546821 451.83428172246704Q1356.1612407935904 460.73138162747915 1353.602969255408 468.0082428916424Q1351.0446977172255 475.25667891649255 1351.0446977172255 478.9519600272004L1351.0446977172255 478.9519600272004Q1351.0446977172255 482.22086254821124 1353.2902916229634 482.22086254821124ZM1505.763275298634 493.0793039658298L1505.763275298634 493.0793039658298Q1495.5301891459044 493.0793039658298 1491.8633332745096 487.536382299768Q1488.1680521638018 482.0218858730193 1488.1680521638018 474.6597488909166L1488.1680521638018 474.6597488909166Q1488.1680521638018 469.1168272248548 1489.3903374542667 463.6876065160455Q1490.6126227447317 458.28681104654936 1492.0623099497018 454.07987562820495Q1493.4835719153587 449.8729402098606 1493.9099505050556 448.2527015690117L1493.9099505050556 448.2527015690117Q1496.1555444107935 441.48749461248497 1499.3107459745518 434.7507128952713Q1502.4943727776233 427.98550593874455 1503.517681392896 423.4943181272688L1503.517681392896 423.4943181272688Q1501.0731108119664 425.5409353578147 1496.9798763508745 431.169132741816Q1492.8866418897826 436.7973301258172 1488.0543512065492 444.1594671079199Q1483.2504857626288 451.52160409002255 1479.0719755835978 459.3953953797617Q1474.8650401652533 467.2691866695008 1472.1077919518789 474.23337030121957Q1469.3505437385045 481.19755393293826 1469.3505437385045 485.688741744414L1469.3505437385045 485.688741744414Q1469.3505437385045 488.55969091504096 1470.5728290289696 490.2083547952029L1470.5728290289696 490.2083547952029Q1468.7251884736154 490.8052848207788 1466.8775479182616 491.3169391284153Q1465.0299073629078 491.8285934360518 1463.2106920468668 491.8285934360518L1463.2106920468668 491.8285934360518Q1456.0475317399562 491.8285934360518 1453.2618582872685 487.9627608894651Q1450.5046100738944 484.06850310356515 1450.5046100738944 478.5255814375033L1450.5046100738944 478.5255814375033Q1450.5046100738944 471.7887997202897 1453.0628816120768 464.1992608236819Q1455.6211531502593 456.63814716638734 1457.667770380805 451.9195574404065L1457.667770380805 451.9195574404065Q1459.3164342609668 448.2527015690117 1461.8747057991495 442.11284987737395Q1464.4329773373317 435.97299818573623 1467.1902255507061 429.9184222120379Q1469.9474737640805 423.89227147765274 1471.9940909946265 420.6233689566419L1471.9940909946265 420.6233689566419Q1469.7484970888884 422.6699861871878 1465.1436083201602 428.3834592891285Q1460.538719551432 434.12535763038227 1455.0242231246832 441.913873202182Q1449.4813014586214 449.6739635346686 1444.3647583822565 457.9741334141048Q1439.248215305892 466.2458780542279 1435.979312784881 473.6364402756437Q1432.7104102638702 480.9985772577463 1432.7104102638702 485.91614365891917L1432.7104102638702 485.91614365891917Q1432.7104102638702 489.18504617993 1434.131672229527 490.60630814558687L1434.131672229527 490.60630814558687Q1434.757027494416 491.2316634104759 1434.757027494416 491.6296167608598L1434.757027494416 491.6296167608598Q1434.757027494416 492.65292537613277 1432.5114335886783 492.2549720257489L1432.5114335886783 492.2549720257489Q1427.7928438626975 491.43064008566785 1423.3016560512217 490.52103242764747Q1418.7820430004326 489.58299953031394 1415.8258181118665 486.6267746417476Q1412.841167983987 483.6421245138681 1412.841167983987 476.70636612146257L1412.841167983987 476.70636612146257Q1412.841167983987 471.1634444554007 1415.712117154614 463.28965316566155Q1418.5830663252407 455.4158618759224 1422.4773241111404 447.0304162785468Q1426.3715818970404 438.6165454418581 1429.2141058283541 431.4533851349473L1429.2141058283541 431.4533851349473Q1429.8394610932432 429.8331464940985 1431.2607230589003 426.45054301583514Q1432.7104102638702 423.06793953757176 1434.2453731867795 419.28738270892444Q1435.780336109689 415.5068258802771 1436.60466804977 412.52217575239763Q1437.4005747505378 409.56595086383135 1437.0026214001539 408.54264224855837L1437.0026214001539 408.54264224855837Q1436.60466804977 407.7183103084774 1436.60466804977 407.32035695809344L1436.60466804977 407.32035695809344Q1436.60466804977 404.8473611378505 1439.8735705707809 404.8473611378505L1439.8735705707809 404.8473611378505Q1443.1424730917915 404.8473611378505 1446.525076570055 405.785394035184Q1449.9076800483185 406.6950016932044 1452.5512273044403 408.74161892375037L1452.5512273044403 408.74161892375037Q1455.4221764750673 410.78823615429627 1457.0708403552292 413.65918532492316Q1458.691078996078 416.5301344955501 1458.691078996078 419.9980136917529L1458.691078996078 419.9980136917529Q1458.691078996078 422.2436075974907 1457.667770380805 425.3135334433096L1457.667770380805 425.3135334433096Q1457.0708403552292 427.16117399866357 1455.3084755178145 430.344800801735Q1453.5745359197133 433.5000023654933 1452.0395729968038 436.4846524933727Q1450.5046100738944 439.44087738193906 1450.3056333987024 440.6631626724039L1450.3056333987024 440.6631626724039Q1453.5745359197133 435.97299818573623 1457.5824946628657 430.2310998444824Q1461.562028166705 424.5176267425418 1465.3425849953521 419.28738270892444Q1469.1231418239995 414.0571386753071 1472.1077919518789 410.2765818466598Q1475.0640168404452 406.49602501801246 1476.5137040454154 405.47271640273954L1476.5137040454154 405.47271640273954Q1478.7592979511533 403.8240525225775 1481.829223796972 403.8240525225775L1481.829223796972 403.8240525225775Q1486.1214349332556 403.8240525225775 1491.2379780096205 406.2970483428205L1491.2379780096205 406.2970483428205Q1494.7058572058236 407.7183103084774 1496.0418434535409 410.07760517146784Q1497.3778297012584 412.43690003445823 1497.3778297012584 415.3078492050852L1497.3778297012584 415.3078492050852Q1497.3778297012584 419.401083666177 1495.2175115134598 423.7785705204002Q1493.0856185649748 428.1844826139365 1491.2379780096205 431.6807870494524L1491.2379780096205 431.6807870494524Q1495.3312124707124 425.93888870819865 1499.538147889057 420.1969903669448Q1503.716658068088 414.48351726500414 1507.2982382215434 409.9639042142153Q1510.8798183749989 405.47271640273954 1513.1254122807366 403.8240525225775L1513.1254122807366 403.8240525225775Q1514.7740761608986 402.6017672321126 1518.4693572716064 402.6017672321126L1518.4693572716064 402.6017672321126Q1522.7615684078903 402.6017672321126 1527.2527562193661 405.27373972754754Q1531.772369270155 407.9172869836693 1531.772369270155 414.8814706153881L1531.772369270155 414.8814706153881Q1531.772369270155 417.553443110823 1530.749060654882 421.0213223070258Q1529.725752039609 424.5176267425418 1527.451732894558 428.80983787882553L1527.451732894558 428.80983787882553Q1518.6683339467986 445.5807290735768 1513.9497442208176 458.9974420293778Q1509.2595797341498 472.3857297458656 1509.2595797341498 478.75298335200847L1509.2595797341498 478.75298335200847Q1509.2595797341498 483.2441711634842 1511.7041503150797 483.2441711634842L1511.7041503150797 483.2441711634842Q1514.5750994857067 483.2441711634842 1518.1566796391621 479.5488900527763Q1521.7382597926173 475.8820341813815 1525.2061389888202 470.7654911050168L1525.2061389888202 470.7654911050168Q1529.725752039609 464.1992608236819 1533.5063088682564 456.8371238415793Q1537.2868656969038 449.47498685947664 1538.7081276625606 446.60403768884976L1538.7081276625606 446.60403768884976Q1539.3334829274497 445.38175239838483 1540.5557682179144 445.38175239838483L1540.5557682179144 445.38175239838483Q1541.7780535083796 445.38175239838483 1542.9150630809052 446.7177386461023Q1544.0520726534303 448.0537248938198 1543.2277407133495 449.6739635346686L1543.2277407133495 449.6739635346686Q1541.7780535083796 452.54491270529553 1539.020805295005 457.5477548244078Q1536.2635570816308 462.5790221828331 1532.795677885428 468.40619624202634Q1529.299373449912 474.23337030121957 1525.2061389888202 479.5488900527763L1525.2061389888202 479.5488900527763Q1520.7149511773443 485.29078839403013 1515.7973847761716 489.18504617993Q1510.8798183749989 493.0793039658298 1505.763275298634 493.0793039658298ZM1548.3442837897144 492.65292537613277L1548.3442837897144 492.65292537613277Q1538.3101743121765 492.65292537613277 1534.3306408083374 488.04803660740447Q1530.3226820651848 483.44314783867617 1530.3226820651848 476.47896420695747L1530.3226820651848 476.47896420695747Q1530.3226820651848 469.1168272248548 1533.0799302785592 460.6176806702266Q1535.8656037312467 452.1469593549116 1539.4471838847023 444.87009809074834Q1543.0287640381575 437.5932368265851 1545.0753812687033 433.7274042799984L1545.0753812687033 433.7274042799984Q1553.4608268660788 418.1503731363989 1564.404544001637 410.9872128294882Q1575.348261137195 403.8240525225775 1588.6512731357434 403.8240525225775L1588.6512731357434 403.8240525225775Q1593.3698628617242 403.8240525225775 1599.7086912285542 404.25043111227455Q1606.0475195953836 404.6483844626585 1612.6137498767184 404.6483844626585L1612.6137498767184 404.6483844626585Q1615.8826523977293 404.6483844626585 1618.9525782435483 404.44940778746655Q1622.0225040893672 404.25043111227455 1624.893453259994 404.25043111227455L1624.893453259994 404.25043111227455L1625.6893599607617 404.25043111227455Q1629.1856643962778 404.25043111227455 1629.1856643962778 405.47271640273954L1629.1856643962778 405.47271640273954Q1629.1856643962778 406.2970483428205 1626.712668576035 407.32035695809344L1626.712668576035 407.32035695809344Q1624.0691213199132 408.3436655733664 1620.3738402092051 414.17083963255965Q1616.7069843378104 419.9980136917529 1612.8127265519104 428.1844826139365Q1608.9184687660106 436.3709515361202 1605.4505895698078 444.7563971334958L1605.4505895698078 444.7563971334958Q1603.602949014454 449.47498685947664 1600.533023168635 457.3487781492158Q1597.463097322816 465.2225694389549 1596.0134101178462 473.4090383611385L1596.0134101178462 473.4090383611385Q1595.814433442654 474.8587255661086 1595.729157724715 475.967309899321Q1595.6154567674623 477.10431947184645 1595.6154567674623 478.12762808711943L1595.6154567674623 478.12762808711943Q1595.6154567674623 483.2441711634842 1598.2874292628971 483.2441711634842L1598.2874292628971 483.2441711634842Q1601.556331783908 483.2441711634842 1605.0242109801109 479.7762919672814Q1608.5205154156267 476.27998753176547 1611.7894179366376 471.3624211305927L1611.7894179366376 471.3624211305927Q1614.6603671072644 467.07020999430887 1617.5028910385781 461.75469024275213Q1620.3738402092051 456.43917049119534 1622.619434114943 451.83428172246704Q1624.893453259994 447.22939295373874 1625.916761875267 445.38175239838483L1625.916761875267 445.38175239838483Q1626.513691900843 444.1594671079199 1627.5370005161158 444.1594671079199L1627.5370005161158 444.1594671079199Q1628.7592858065807 444.1594671079199 1629.7825944218537 445.8934067060213Q1630.8059030371267 447.6273463041227 1630.0099963363589 449.2760101842847L1630.0099963363589 449.2760101842847Q1626.1157385504587 456.8371238415793 1621.59612549967 465.44997135346Q1617.1049376881945 474.0343936260276 1611.7894179366376 480.9985772577463L1611.7894179366376 480.9985772577463Q1602.778617074373 492.65292537613277 1590.8968670414813 492.65292537613277L1590.8968670414813 492.65292537613277Q1581.91449141853 492.65292537613277 1577.7075560001856 487.1384289493841Q1573.500620581841 481.5955072833222 1573.500620581841 473.8354169508356L1573.500620581841 473.8354169508356Q1573.500620581841 470.3391125153197 1574.1259758467302 467.07020999430887L1574.1259758467302 467.07020999430887Q1571.8803819409923 470.7654911050168 1568.6114794199814 476.59266516420996Q1565.3141516596572 482.4198392234032 1561.1356414806262 487.1384289493841Q1556.9287060622817 491.8285934360518 1551.8121629859172 492.4539487009408L1551.8121629859172 492.4539487009408Q1550.987831045836 492.4539487009408 1550.1919243450682 492.5676496581934Q1549.3675924049874 492.65292537613277 1548.3442837897144 492.65292537613277ZM1555.905397447009 482.22086254821124L1555.905397447009 482.22086254821124Q1557.9520146775549 482.22086254821124 1561.3346181558184 478.5255814375033Q1564.7172216340816 474.8587255661086 1568.2988017875368 469.2305281821073Q1571.8803819409923 463.6023307981061 1574.523929197114 457.86043245685227L1574.523929197114 457.86043245685227Q1575.149284462003 456.2401938160034 1577.5085793249934 450.8109731071941Q1579.867874187984 445.38175239838483 1582.82409907655 438.1048911342216Q1585.7803239651164 430.8564551093715 1588.8502498109353 423.4943181272688Q1591.9201756567543 416.103755905853 1594.1941948018055 410.58925947910427L1594.1941948018055 410.58925947910427Q1594.3931714769972 409.9639042142153 1594.3931714769972 409.1679975134474L1594.3931714769972 409.1679975134474Q1594.3931714769972 407.9172869836693 1593.1708861865325 407.9172869836693L1593.1708861865325 407.9172869836693Q1591.9201756567543 407.9172869836693 1590.2999370159055 408.8553198810029Q1588.6512731357434 409.7649275390233 1587.2300111700865 410.78823615429627L1587.2300111700865 410.78823615429627Q1584.5580386746517 412.8348533848422 1580.3795284956204 419.28738270892444Q1576.1725930772761 425.7399120330067 1571.5677043085477 434.32433430557427Q1566.9628155398193 442.937181817455 1562.8695810787274 451.83428172246704Q1558.7763466176357 460.73138162747915 1556.2180750794535 468.0082428916424Q1553.659803541271 475.25667891649255 1553.659803541271 478.9519600272004L1553.659803541271 478.9519600272004Q1553.659803541271 482.22086254821124 1555.905397447009 482.22086254821124ZM1648.429551411272 494.50056593148673L1648.429551411272 494.50056593148673Q1633.4778755325617 494.50056593148673 1626.8263695332873 487.73535897496Q1620.1748635340132 480.9985772577463 1620.1748635340132 469.94115916493575L1620.1748635340132 469.94115916493575Q1620.1748635340132 461.55571356756013 1623.6427427302158 451.52160409002255L1623.6427427302158 451.52160409002255Q1626.3147152256508 443.33513516783887 1630.8059030371267 434.8359886132107Q1635.3255160879155 426.3368420585826 1641.2663911043612 419.08840603373244Q1647.178840881494 411.8115447695692 1654.3420011884045 407.4056326760329Q1661.5051614953154 403.0281458218097 1669.492653742307 403.0281458218097L1669.492653742307 403.0281458218097Q1679.7257398950367 403.0281458218097 1686.1782692191189 406.18334738556797Q1692.630798543201 409.36697418863935 1692.630798543201 416.5301344955501L1692.630798543201 416.5301344955501Q1692.630798543201 421.84565424710684 1688.3385874069174 429.8331464940985L1688.3385874069174 429.8331464940985Q1682.5966890656634 440.8905645869091 1671.539270972853 448.0537248938198Q1660.4818528800422 455.2168852007305 1646.78088753111 456.2401938160034L1646.78088753111 456.2401938160034Q1643.710961685291 464.625639413379 1643.0856064204022 469.94115916493575L1643.0856064204022 469.94115916493575Q1642.8866297452103 470.96446778020874 1642.8866297452103 471.8740754382291Q1642.8866297452103 472.8121083355627 1642.8866297452103 473.8354169508356L1642.8866297452103 473.8354169508356Q1642.8866297452103 480.5721986680493 1645.956555591029 483.5568487959287Q1649.0264814368477 486.51307368449505 1653.546094487637 486.51307368449505L1653.546094487637 486.51307368449505Q1661.9315400850123 486.51307368449505 1668.2703684518422 482.22086254821124Q1674.6091968186718 477.9286514119275 1679.413062262592 471.3624211305927Q1684.2453529458255 464.824616088571 1687.7132321420283 458.28681104654936L1687.7132321420283 458.28681104654936Q1689.7598493725743 454.59152993584144 1691.1811113382312 451.40790313277Q1692.630798543201 448.2527015690117 1693.455130483282 446.8030143640417L1693.455130483282 446.8030143640417Q1694.4784390985549 445.18277572319283 1695.70072438902 445.18277572319283L1695.70072438902 445.18277572319283Q1696.9230096794847 445.18277572319283 1697.946318294758 446.5187619709103Q1698.9696269100307 447.8263229793147 1698.1452949699499 449.47498685947664L1698.1452949699499 449.47498685947664Q1695.501747713828 454.7905066110334 1690.783157987847 463.6023307981061Q1686.0645682618663 472.3857297458656 1680.1521184847338 479.1509367023924L1680.1521184847338 479.1509367023924Q1673.5858882033988 486.9394522741921 1666.1100502640436 490.7200091028394Q1658.6626375640017 494.50056593148673 1648.429551411272 494.50056593148673ZM1651.0730986673939 446.40506101365776L1649.452860026545 450.2993187995576Q1658.6626375640017 446.8030143640417 1665.7120969136597 437.8206387410902Q1672.761556263318 428.80983787882553 1675.2345520835609 417.95139646120697L1675.2345520835609 417.95139646120697Q1675.4335287587528 416.928087845934 1675.5472297160054 416.103755905853Q1675.6325054339447 415.3078492050852 1675.6325054339447 414.48351726500414L1675.6325054339447 414.48351726500414Q1675.6325054339447 410.3902828039123 1673.187934853015 410.3902828039123L1673.187934853015 410.3902828039123Q1671.141317622469 410.3902828039123 1668.8957237167313 413.2612319745392L1668.8957237167313 413.2612319745392Q1665.598395956407 417.12706452112593 1661.9315400850123 423.7785705204002Q1658.2362589743045 430.4300765196744 1655.3653098036777 436.7973301258172Q1652.522785872364 443.1361584926469 1651.0730986673939 446.40506101365776L1651.0730986673939 446.40506101365776ZM1710.6239750284174 492.8519020513247L1710.6239750284174 492.8519020513247Q1702.2385294310418 492.8519020513247 1697.4346639871214 490.4073314703949Q1692.630798543201 487.9627608894651 1690.3852046374632 483.2441711634842L1690.3852046374632 483.2441711634842Q1688.3385874069174 478.5255814375033 1688.3385874069174 472.18675307067366L1688.3385874069174 472.18675307067366Q1688.3385874069174 461.3567368923682 1693.3414295260297 447.6273463041227Q1698.3442716451418 433.9263809551903 1705.1094786016686 421.4477008967229L1705.1094786016686 421.4477008967229Q1707.7814510971036 416.5301344955501 1711.5620079257508 409.87862849627584Q1715.3425647543984 403.22712249700163 1720.1464301983185 396.6608922156668Q1724.9502956422386 390.12308717364516 1730.3795163510479 385.3192217297249Q1735.8087370598575 380.5153562858046 1741.550635401111 379.49204767053163L1741.550635401111 379.49204767053163Q1745.018514597314 378.86669240564265 1748.2874171183246 378.86669240564265L1748.2874171183246 378.86669240564265Q1753.6029368698812 378.86669240564265 1756.2749093653163 379.8900010209156L1756.2749093653163 379.8900010209156Q1760.9934990912973 381.73764157626954 1760.9934990912973 383.5852821316235L1760.9934990912973 383.5852821316235Q1760.9934990912973 384.8075674220884 1758.9468818607513 384.8075674220884L1758.9468818607513 384.8075674220884Q1758.12254992067 384.8075674220884 1756.6728627157001 385.71717508010886Q1755.2516007500433 386.6552079774424 1754.0293154595786 387.8774932679073L1754.0293154595786 387.8774932679073Q1745.018514597314 396.8882941301719 1734.1600731796955 414.68249394019614L1734.1600731796955 414.68249394019614Q1725.3766742319356 429.0088145540175 1719.4357992154899 442.82348086020244Q1713.4949241990441 456.63814716638734 1710.6239750284174 471.1634444554007L1710.6239750284174 471.1634444554007Q1710.0270450028413 474.8587255661086 1710.0270450028413 477.3032961470384L1710.0270450028413 477.3032961470384Q1710.0270450028413 481.5955072833222 1711.4483069684982 483.44314783867617Q1712.8979941734685 485.29078839403013 1714.944611404014 485.29078839403013L1714.944611404014 485.29078839403013Q1719.037845865106 485.29078839403013 1724.4386413346022 480.5721986680493Q1729.8678620434114 475.8820341813815 1733.1367645644225 470.3391125153197L1733.1367645644225 470.3391125153197Q1737.4574009400192 464.4266627381871 1740.8115791789694 457.9741334141048Q1744.1941826572331 451.52160409002255 1746.4397765629708 447.0304162785468L1746.4397765629708 447.0304162785468Q1747.2641085030516 445.5807290735768 1748.7137957080215 445.5807290735768L1748.7137957080215 445.5807290735768Q1749.9360809984867 445.5807290735768 1750.9593896137596 446.8030143640417Q1751.9826982290326 448.0537248938198 1751.1583662889514 449.6739635346686L1751.1583662889514 449.6739635346686Q1748.0884404431329 455.81381522630636 1743.4835516744045 464.1992608236819Q1738.878662905676 472.6131316603707 1733.3641664789272 479.1509367023924L1733.3641664789272 479.1509367023924Q1728.2476234025628 485.29078839403013 1722.3920241040562 489.07134522267745Q1716.564850044863 492.8519020513247 1710.6239750284174 492.8519020513247Z " fill="#fcedda" transform="matrix(0.4990966666041246,0,0,0.4990966666041245,-3.905995278219954,80.72618151693862)"/></g></svg>